<svg width="240" height="90" viewBox="0 0 240 90" fill="none" xmlns="http://www.w3.org/2000/svg">
  <path
    d="M20 55c8-16 20-25 40-30 32-8 69-11 108 2 26 9 46 8 68 6 14-1 22 9 28 24"
    stroke="#0F1B2E"
    stroke-width="6"
    stroke-linecap="round"
    fill="none"
  />
  <path
    d="M44 60c0 8-7 15-15 15S14 68 14 60s7-15 15-15 15 7 15 15zm150 0c0 8-7 15-15 15s-15-7-15-15 7-15 15-15 15 7 15 15z"
    stroke="#0F1B2E"
    stroke-width="4"
    fill="none"
  />
  <text
    x="120"
    y="85"
    font-family="Verdana, sans-serif"
    font-weight="700"
    font-size="32"
    text-anchor="middle"
    fill="#0F1B2E"
  >
    CARCHOOSER
  </text>
</svg>
